<svg width="50" height="50" viewBox="0 0 50 50" fill="none" xmlns="http://www.w3.org/2000/svg">
<path d="M6.50937 28.125H0.19375H0V43.75L4.62812 39.4969C9.1625 45.8531 16.5969 50 25 50C37.75 50 48.2687 40.4563 49.8062 28.125H43.4906C42.0031 36.9938 34.2906 43.75 25 43.75C18.4188 43.75 12.625 40.3562 9.28125 35.2219L17.0031 28.125H6.50937Z" fill="white"/>
<path d="M25 0C12.25 0 1.73123 9.54375 0.193726 21.875H6.50935C7.99685 13.0062 15.7094 6.25 25 6.25C31.7781 6.25 37.7187 9.84687 41.0125 15.2375L34.375 21.875H40.625H43.4906H49.8062H50V6.25L45.525 10.725C41.0093 4.24062 33.5 0 25 0Z" fill="white"/>
</svg>
