<svg width="55" height="50" viewBox="0 0 55 50" fill="none" xmlns="http://www.w3.org/2000/svg">
<path d="M55 21.0446C55 18.2271 52.5863 15.9349 49.6196 15.9349H36.6436L38.5327 11.0407C38.5388 11.0248 38.5446 11.0091 38.5502 10.9932C39.4606 8.39973 39.2314 5.67851 37.8874 3.12307C36.8732 1.19667 34.8348 0 32.5676 0H31.9373C30.4106 0 29.1193 1.1327 28.9971 2.5784C28.7838 5.1065 27.642 7.50106 25.7822 9.32187L15.3904 19.3414H14.3478V17.6381C14.3478 16.6975 13.5448 15.9349 12.5543 15.9349H1.79352C0.802978 15.9349 0 16.6975 0 17.6381V48.2967C0 49.2373 0.802978 50 1.79352 50H12.5544C13.5448 50 14.3479 49.2374 14.3479 48.2967V46.5934H44.2392C47.206 46.5934 49.6197 44.3012 49.6197 41.4837C49.6197 40.5733 49.3679 39.7178 48.9266 38.9768C50.4209 38.0679 51.4132 36.4773 51.4132 34.6706C51.4132 33.7602 51.1614 32.9048 50.7201 32.1637C52.2144 31.2549 53.2067 29.6643 53.2067 27.8576C53.2067 26.9472 52.9549 26.0917 52.5136 25.3507C54.0077 24.442 55 22.8514 55 21.0446ZM10.7609 21.0446V44.8901V46.5934H3.58692V19.3414H10.7609V21.0446ZM49.6196 22.7479H47.826H44.2391C43.2487 22.7479 42.4456 23.5105 42.4456 24.4512C42.4456 25.3919 43.2486 26.1545 44.2391 26.1545H47.826C48.815 26.1545 49.6196 26.9186 49.6196 27.8578C49.6196 28.7969 48.815 29.5611 47.826 29.5611H46.0325H42.4456C41.4552 29.5611 40.6521 30.3236 40.6521 31.2643C40.6521 32.2051 41.4551 32.9676 42.4456 32.9676H46.0325C47.0215 32.9676 47.826 33.7317 47.826 34.6709C47.826 35.6101 47.0215 36.3742 46.0325 36.3742H44.239C44.145 36.3742 44.0535 36.3832 43.9633 36.3963H40.533C39.5425 36.3963 38.7394 37.1589 38.7394 38.0996C38.7394 39.0402 39.5424 39.8029 40.533 39.8029H44.1199C44.2003 39.8029 44.2789 39.7961 44.3565 39.7864C45.2907 39.8443 46.0325 40.5825 46.0325 41.484C46.0325 42.4231 45.2279 43.1873 44.239 43.1873H14.3478V22.7478H16.1413C16.6217 22.7478 17.0819 22.5648 17.4191 22.2398L28.3425 11.7076C28.3455 11.7047 28.3485 11.7017 28.3513 11.6989C30.6565 9.44449 32.1214 6.51801 32.5141 3.40627H32.5676C33.4673 3.40627 34.2765 3.88147 34.6788 4.64578C35.5976 6.39243 35.7576 8.15764 35.155 9.89317L32.3921 17.0519C32.1904 17.5743 32.2703 18.1573 32.6058 18.6134C32.9412 19.0696 33.4901 19.3413 34.076 19.3413H49.6196C50.6085 19.3413 51.4131 20.1054 51.4131 21.0446C51.4131 21.9838 50.6085 22.7479 49.6196 22.7479Z" fill="white"/>
</svg>
