<svg width="56" height="50" viewBox="0 0 56 50" fill="none" xmlns="http://www.w3.org/2000/svg">
<path d="M54.3594 0H18.2656C17.3596 0 16.625 0.72684 16.625 1.62338V4.97835H46.0469C48.7608 4.97835 50.9688 7.16309 50.9688 9.84848V33.5498H54.3594C55.2654 33.5498 56 32.8229 56 31.9264V1.62338C56 0.72684 55.2654 0 54.3594 0Z" fill="white"/>
<path d="M46.0469 8.2251H9.95312C9.04706 8.2251 8.3125 8.95194 8.3125 9.84847V13.2035H37.7344C40.4483 13.2035 42.6562 15.3882 42.6562 18.0736V41.7749H46.0469C46.9529 41.7749 47.6875 41.048 47.6875 40.1515V9.84847C47.6875 8.95194 46.9529 8.2251 46.0469 8.2251Z" fill="white"/>
<path d="M37.7344 16.4502H1.64062C0.734562 16.4502 0 17.177 0 18.0736V48.3766C0 49.2731 0.734562 50 1.64062 50H37.7344C38.6404 50 39.375 49.2731 39.375 48.3766V18.0736C39.375 17.177 38.6404 16.4502 37.7344 16.4502ZM34.4531 43.5065C34.4531 44.403 33.7186 45.1298 32.8125 45.1298H6.5625C5.65644 45.1298 4.92188 44.403 4.92188 43.5065V22.9437C4.92188 22.0472 5.65644 21.3203 6.5625 21.3203H32.8125C33.7186 21.3203 34.4531 22.0472 34.4531 22.9437V43.5065Z" fill="white"/>
<path d="M8.20312 40.877V41.8831H16.9635L12.3414 36.2703L8.20312 40.877Z" fill="white"/>
<path d="M8.20312 35.9899L11.1696 32.6876C11.841 31.9402 13.0293 31.9654 13.6677 32.7406L18.0105 38.0142L25.0267 29.4939C25.6652 28.7185 26.8534 28.6933 27.5249 29.4408L31.1719 33.5007V24.567H8.20312V35.9899ZM18.0469 27.8138C18.9529 27.8138 19.6875 28.5406 19.6875 29.4371C19.6875 30.3337 18.9529 31.0605 18.0469 31.0605C17.1408 31.0605 16.4062 30.3337 16.4062 29.4371C16.4062 28.5406 17.1408 27.8138 18.0469 27.8138Z" fill="white"/>
<path d="M20.1266 40.5844L21.1961 41.8831H31.1718V38.3877L26.3528 33.0234L20.1266 40.5844Z" fill="white"/>
</svg>
