<svg width="50" height="51" viewBox="0 0 50 51" fill="none" xmlns="http://www.w3.org/2000/svg">
<path d="M49.4949 8.22107L43.0836 1.83581C42.1961 0.947722 40.4333 1.25807 39.1576 2.51678L33.2787 8.32431L25.1912 0H0V51H39.6337V21.1519L48.7982 12.1043C50.0642 10.8456 50.3857 9.10403 49.4949 8.22107ZM25.8659 6.65393L30.3211 11.2444L27.8823 13.6548H25.8659V6.65393ZM26.7923 31.3774L17.9228 34.9368L16.0183 33.0375L19.6416 24.2586L26.7923 31.3774ZM35.4593 46.8661H4.17051V4.13394H22.7376V16.7544H24.7442L22.3676 19.0987H8.62371V21.1654H20.2787L18.3944 23.0217L16.475 27.6789H8.62371V29.7474H15.6244L12.9346 36.2584H8.62306V38.3237H31.0171V36.2584H18.9403L28.0259 32.6098L30.9233 29.7474H31.0139V29.6577L35.4555 25.273V46.8667H35.4593V46.8661Z" fill="white"/>
</svg>
